<svg width="472" height="378" xmlns="http://www.w3.org/2000/svg" xmlns:xlink="http://www.w3.org/1999/xlink" overflow="hidden"><defs><clipPath id="clip0"><rect x="89" y="87" width="472" height="378"/></clipPath></defs><g clip-path="url(#clip0)" transform="translate(-89 -87)"><path d="M140 101.955C140 93.6955 146.696 87 154.955 87L490.045 87C498.304 87 505 93.6955 505 101.955L505 317.045C505 325.304 498.304 332 490.045 332L154.955 332C146.696 332 140 325.304 140 317.045Z" fill="#BFBFBF" fill-rule="evenodd"/><path d="M157 111C157 106.582 160.582 103 165 103 169.418 103 173 106.582 173 111 173 115.418 169.418 119 165 119 160.582 119 157 115.418 157 111Z" fill="#FF0000" fill-rule="evenodd"/><path d="M180 111C180 106.582 183.358 103 187.5 103 191.642 103 195 106.582 195 111 195 115.418 191.642 119 187.5 119 183.358 119 180 115.418 180 111Z" fill="#FFC000" fill-rule="evenodd"/><path d="M201 111C201 106.582 204.582 103 209 103 213.418 103 217 106.582 217 111 217 115.418 213.418 119 209 119 204.582 119 201 115.418 201 111Z" fill="#00B050" fill-rule="evenodd"/><path d="M157 142.106C157 137.629 160.629 134 165.106 134L478.894 134C483.371 134 487 137.629 487 142.106L487 378.894C487 383.371 483.371 387 478.894 387L165.106 387C160.629 387 157 383.371 157 378.894Z" fill="#FFFFFF" fill-rule="evenodd"/><path d="M99 377.946 99 377.946 99 377.946ZM326.712 189.02C365.806 189.708 403.246 208.51 426.535 241.228 438.469 257.994 445.622 276.911 448.059 296.243L448.311 301.891 473.891 301.891C515.925 301.891 550 335.942 550 377.946L550 377.946C550 419.949 515.925 454 473.891 454L175.109 454C138.329 454 107.643 427.93 100.546 393.273L99 377.946 100.546 362.618C107.643 327.962 138.329 301.891 175.109 301.891L200.777 301.891 201.44 292.694C208.574 247.082 241.563 208.566 287.53 194.525 300.466 190.573 313.681 188.79 326.712 189.02Z" stroke="#000000" stroke-width="20" stroke-miterlimit="8" fill="#DEEBF7" fill-rule="evenodd"/><path d="M200.007 310.814C199.27 243.163 254.409 187.732 323.165 187.007 391.92 186.281 448.255 240.535 448.993 308.186 449.304 336.702 439.493 364.431 421.253 386.593L324.5 309.5Z" fill="#DEEBF7" fill-rule="evenodd"/><path d="M200.007 310.814C199.27 243.163 254.409 187.732 323.165 187.007 391.92 186.281 448.255 240.535 448.993 308.186 449.304 336.702 439.493 364.431 421.253 386.593" stroke="#000000" stroke-width="20" stroke-miterlimit="8" fill="none" fill-rule="evenodd"/><path d="M174 454C132.579 454 99 419.974 99 378 99 336.026 132.579 302 174 302 200.327 302 224.727 315.989 238.287 338.856L174 378Z" fill="#DEEBF7" fill-rule="evenodd"/><path d="M174 454C132.579 454 99 419.974 99 378 99 336.026 132.579 302 174 302 200.327 302 224.727 315.989 238.287 338.856" stroke="#000000" stroke-width="20" stroke-miterlimit="8" fill="none" fill-rule="evenodd"/></g></svg>